<svg xmlns="http://www.w3.org/2000/svg" width="352" height="202" viewBox="0 0 352 202" fill="none"><path d="M11.0117 201.007C7.08261 201.007 3.11667 199.628 0 196.854L3.37147 192.809C5.70685 194.745 8.15265 195.963 11.1221 195.963C13.4518 195.963 14.8559 195.031 14.8559 193.517V193.44C14.8559 191.997 13.9699 191.252 9.63313 190.142C4.41037 188.806 1.03329 187.36 1.03329 182.216V182.134C1.03329 177.424 4.81796 174.313 10.1143 174.313C13.9019 174.313 17.1233 175.496 19.7559 177.611L16.7865 181.911C14.4879 180.32 12.2261 179.357 10.0407 179.357C7.85253 179.357 6.70328 180.357 6.70328 181.613V181.693C6.70328 183.397 7.81576 183.943 12.3025 185.101C17.5649 186.471 20.5344 188.365 20.5344 192.886V192.959C20.54 198.117 16.6053 201.007 11.0117 201.007Z" fill="#255D7E"></path><path d="M44.265 200.636L41.8957 194.808H30.9207L28.5486 200.636H22.7313L33.845 174.497H39.1102L50.235 200.636H44.265ZM36.4068 181.356L32.9589 189.774H39.8604L36.4068 181.356Z" fill="#255D7E"></path><path d="M54.2461 200.636V174.684H59.95V195.442H72.8838V200.636H54.2461Z" fill="#255D7E"></path><path d="M77.1951 200.636V174.684H96.767V179.765H82.8622V185.027H95.0968V190.106H82.8622V195.555H96.948V200.636H77.1951Z" fill="#255D7E"></path><path d="M111.263 201.007C107.334 201.007 103.368 199.628 100.252 196.854L103.626 192.809C105.964 194.745 108.41 195.963 111.377 195.963C113.709 195.963 115.116 195.031 115.116 193.517V193.44C115.116 191.997 114.23 191.252 109.888 190.142C104.662 188.806 101.288 187.36 101.288 182.216V182.134C101.288 177.424 105.072 174.313 110.372 174.313C114.153 174.313 117.381 175.496 120.01 177.611L117.038 181.911C114.742 180.32 112.48 179.357 110.289 179.357C108.104 179.357 106.958 180.357 106.958 181.613V181.693C106.958 183.397 108.073 183.943 112.56 185.101C117.816 186.471 120.786 188.365 120.786 192.886V192.959C120.789 198.117 116.857 201.007 111.263 201.007Z" fill="#255D7E"></path><path d="M145.077 177.353H129.244V186.213H143.409V188.886H129.244V197.967H145.264V200.636H126.317V174.684H145.077V177.353Z" fill="#EB5A27"></path><path d="M169.178 200.636L160.873 189.48L152.57 200.636H149.196L159.166 187.402L149.561 174.684H153.012L160.983 185.288L168.881 174.684H172.289L162.687 187.36L172.66 200.636H169.178Z" fill="#EB5A27"></path><path d="M187.266 191.476H180.965V200.636H178.038V174.684H187.745C193.607 174.684 197.463 177.797 197.463 182.952C197.463 188.585 192.798 191.476 187.266 191.476ZM187.53 177.387H180.965V188.806H187.38C191.683 188.806 194.502 186.505 194.502 183.06C194.499 179.32 191.719 177.387 187.53 177.387Z" fill="#EB5A27"></path><path d="M202.804 174.684H205.734V197.93H220.341V200.636H202.804V174.684Z" fill="#EB5A27"></path><path d="M236.321 201.081C228.426 201.081 223.118 194.887 223.118 187.697C223.118 180.504 228.499 174.239 236.4 174.239C244.298 174.239 249.594 180.43 249.594 187.626C249.594 194.81 244.219 201.081 236.321 201.081ZM236.321 176.948C230.388 176.948 226.17 181.693 226.17 187.62C226.17 193.554 230.467 198.377 236.4 198.377C242.33 198.377 246.554 193.619 246.554 187.7C246.554 181.763 242.251 176.948 236.321 176.948Z" fill="#EB5A27"></path><path d="M273.656 200.636L266.132 190.547H258.718V200.636H255.791V174.684H266.947C272.656 174.684 276.325 177.758 276.325 182.431C276.325 186.765 273.358 189.29 269.282 190.035L277.248 200.636H273.656ZM266.723 177.387H258.718V187.92H266.686C270.579 187.92 273.364 185.913 273.364 182.545C273.361 179.32 270.91 177.387 266.723 177.387Z" fill="#EB5A27"></path><path d="M301.352 177.353H285.52V186.213H299.685V188.886H285.52V197.967H301.539V200.636H282.595V174.684H301.352V177.353Z" fill="#EB5A27"></path><path d="M325.3 200.636L317.782 190.547H310.362V200.636H307.432V174.684H318.594C324.304 174.684 327.972 177.758 327.972 182.431C327.972 186.765 325.003 189.29 320.935 190.035L328.901 200.636H325.3ZM318.368 177.387H310.362V187.92H318.334C322.229 187.92 325 185.913 325 182.545C325.003 179.32 322.56 177.387 318.368 177.387Z" fill="#EB5A27"></path><path d="M343.547 186.25C349.333 187.513 352 189.627 352 193.627C352 198.114 348.292 201.004 343.137 201.004C339.024 201.004 335.647 199.625 332.533 196.851L334.356 194.7C337.059 197.146 339.658 198.371 343.256 198.371C346.738 198.371 349.033 196.551 349.033 193.921C349.033 191.473 347.74 190.1 342.288 188.951C336.323 187.657 333.575 185.726 333.575 181.426C333.575 177.274 337.172 174.307 342.101 174.307C345.886 174.307 348.592 175.386 351.224 177.492L349.515 179.756C347.109 177.795 344.699 176.943 342.027 176.943C338.659 176.943 336.502 178.791 336.502 181.166C336.499 183.657 337.835 185.027 343.547 186.25Z" fill="#EB5A27"></path><path fill-rule="evenodd" clip-rule="evenodd" d="M172.733 0H179.371C179.657 0.0396307 179.943 0.0905871 180.238 0.113233C181.478 0.21231 182.709 0.288736 183.946 0.396305C187.34 0.693536 190.695 1.27667 194.001 2.07212C208.005 5.48319 220.152 12.2487 230.365 22.4083C240.14 32.1377 246.823 43.6872 250.418 57.0059C251.712 61.8041 252.592 66.6815 252.79 71.658C252.802 71.9326 252.864 72.1902 252.906 72.4534V81.3901C252.864 81.6761 252.813 81.962 252.785 82.2479C252.691 83.417 252.635 84.5889 252.51 85.7552C252.094 89.7296 251.327 93.6445 250.243 97.4859C245.812 113.208 237.238 126.218 224.658 136.61C224.279 136.924 223.885 137.221 223.452 137.558C223.319 137.275 223.214 137.06 223.115 136.836C219.333 128.16 216.262 119.243 213.638 110.165C210.233 98.3917 207.623 86.4431 205.516 74.3699C205.488 74.2311 205.437 74.0868 205.358 73.815C202.278 77.863 199.269 81.8148 196.215 85.826C193.31 83.2556 190.853 80.3796 188.69 77.2516C188.642 77.2714 188.606 77.294 188.56 77.311V152.864C186.686 153.176 184.866 153.416 182.95 153.563V90.4996C182.899 90.4882 182.845 90.4769 182.794 90.4656C177.37 112.045 168.711 132.301 157.855 151.737C156.292 151.304 154.778 150.885 153.212 150.444C157.139 143.441 160.638 136.324 163.85 129.066C167.058 121.819 169.778 114.391 172.413 106.918C166.995 113.406 161.362 119.69 155.488 125.748C149.598 131.823 143.5 137.68 137.21 143.296C136.228 142.863 134.235 141.578 133.876 141.159C134.501 140.573 135.13 139.995 135.749 139.404C138.688 136.599 141.621 133.788 144.55 130.977C146.133 129.462 147.707 127.945 149.283 126.43C149.615 126.111 149.884 125.762 149.974 125.142C143.628 130.198 136.907 134.453 130.198 138.702C130.006 138.566 129.873 138.481 129.748 138.388C119.699 130.747 111.926 121.264 106.496 109.868C101.746 99.8892 99.343 89.3446 99.1109 78.3075C99.0316 74.2651 99.2976 70.2369 99.8525 66.2257C100.538 61.2747 101.681 56.437 103.334 51.7209C108.515 36.9953 117.316 24.8683 129.779 15.473C142.269 6.05784 156.369 0.934158 172.009 0.107575C172.252 0.0962517 172.49 0.0396307 172.733 0Z" fill="#255D7E"></path><path fill-rule="evenodd" clip-rule="evenodd" d="M200.121 38.088C198.117 40.1913 194.556 40.1913 192.455 37.9861C190.505 35.9338 190.369 32.6473 192.518 30.4591C194.621 28.319 198.077 28.319 200.234 30.5299C202.207 32.5539 202.301 36.0414 200.121 38.088ZM193.987 36.6471C195.212 38.2607 197.706 37.8191 198.768 36.7321C200.115 35.3676 200.146 33.1427 198.816 31.8349C197.381 30.4365 195.337 30.4506 193.907 31.8094C192.696 32.9615 192.359 35.3563 193.987 36.6471Z" fill="white"></path><path fill-rule="evenodd" clip-rule="evenodd" d="M203.461 55.4745C205.08 63.8705 202.267 70.7776 196.376 76.6571C195.866 76.1363 195.348 75.7032 194.921 75.1823C194.117 74.1915 193.265 73.2347 192.574 72.1477C191.875 71.0437 191.21 69.9171 190.717 68.6998C190.275 67.5987 189.896 66.4607 189.568 65.3227C189.132 63.8026 188.905 62.2344 188.917 60.652C188.922 59.4036 189.061 58.1581 189.166 56.9069C189.217 56.4002 189.338 55.8991 189.449 55.299C189.16 55.4773 188.945 55.5934 188.747 55.7293C187.864 56.3067 186.989 56.8842 186.109 57.473C185.053 58.1779 184.003 58.9026 182.93 59.5933C182.383 59.9471 181.775 60.083 181.158 59.7574C180.541 59.4319 179.949 59.0214 179.949 58.2458C179.949 57.7193 180.076 57.1928 180.215 56.6776C180.592 55.2877 180.991 53.9006 181.404 52.5107C181.789 51.1859 182.199 49.8639 182.593 48.5391C182.882 47.554 183.15 46.5633 183.434 45.5668C183.671 44.7487 183.901 43.9221 184.158 43.1041C184.473 42.1388 185.121 41.6745 186.134 41.6604C186.276 41.6604 186.406 41.6547 186.584 41.6434C186.508 41.0546 186.434 40.4913 186.363 39.9308C186.123 38.221 186.058 36.5055 186.131 34.7873C186.202 33.2643 186.44 31.7584 186.788 30.2722C187.23 28.3558 187.884 26.5073 188.696 24.7296C189.248 23.4982 189.899 22.3121 190.598 21.1515C191.365 19.8918 192.229 18.683 193.075 17.4602C193.944 16.2146 194.946 15.0767 196.045 14.0264C196.084 13.9783 196.101 13.9189 196.135 13.8736C196.26 13.7094 196.353 13.6188 196.537 13.8424C196.99 14.3831 197.468 14.9012 197.941 15.422C198.27 15.7872 198.621 16.124 198.926 16.5119C199.422 17.1346 199.88 17.7744 200.342 18.417C200.718 18.9463 201.109 19.4672 201.44 20.0248C202.052 21.0439 202.657 22.0658 203.212 23.116C203.722 24.087 204.194 25.0778 204.611 26.0968C204.981 27.0112 205.253 27.951 205.55 28.8936C206.054 30.4392 206.346 32.0358 206.499 33.6493C206.666 35.427 206.663 37.2104 206.439 38.9796C206.34 39.7921 206.233 40.6017 206.136 41.3999C206.128 41.4622 206.139 41.5415 206.142 41.6094C206.502 41.6547 206.867 41.6604 207.209 41.7453C207.988 41.9463 208.398 42.5181 208.616 43.2513C208.984 44.4855 209.332 45.7225 209.686 46.9596C210.046 48.2306 210.402 49.4988 210.767 50.7698C211.13 52.0153 211.501 53.2524 211.86 54.5064C212.155 55.517 212.406 56.5389 212.726 57.5466C212.95 58.2515 212.5 59.197 212.121 59.463C211.294 60.0405 210.479 60.0717 209.76 59.5876C208.52 58.7582 207.266 57.9486 206.023 57.1277C205.211 56.5898 204.401 56.0435 203.591 55.5113C203.541 55.4802 203.478 55.4745 203.461 55.4745ZM196.373 16.4779C196.014 16.8912 195.671 17.2309 195.385 17.613C194.635 18.6264 193.879 19.637 193.186 20.6986C192.475 21.7969 191.776 22.9009 191.198 24.0643C190.536 25.3976 189.967 26.7762 189.429 28.1633C188.897 29.5419 188.554 30.9969 188.319 32.4604C188.073 34.0513 187.935 35.645 188.079 37.2472C188.192 38.5777 188.26 39.9166 188.503 41.2216C188.846 43.0333 189.262 44.8337 189.775 46.5944C190.321 48.4882 191.031 50.3197 191.682 52.1795C191.745 52.3691 191.858 52.5163 192.144 52.4909C192.679 52.4541 193.22 52.5022 193.76 52.5022C194.646 52.5079 195.538 52.5107 196.43 52.5107C197.757 52.5079 199.085 52.4909 200.415 52.522C200.778 52.5277 200.95 52.3833 201.064 52.0974C201.25 51.6077 201.46 51.1264 201.624 50.6339C202.043 49.377 202.436 48.1032 202.85 46.835C203.399 45.1564 203.775 43.4381 204.09 41.7C204.509 39.4665 204.727 37.2104 204.625 34.9232C204.56 33.4483 204.342 31.9933 203.988 30.5638C203.705 29.4768 203.385 28.3897 202.966 27.3508C202.405 25.9751 201.768 24.622 201.086 23.2887C200.574 22.2923 199.945 21.344 199.357 20.3759C199.167 20.0531 198.969 19.7276 198.737 19.4275C198.292 18.8444 197.82 18.2754 197.361 17.7064C197.35 17.6951 197.35 17.6781 197.344 17.6696C197.044 17.2875 196.727 16.9053 196.373 16.4779ZM196.348 73.9622C196.619 73.5999 196.795 73.3281 196.996 73.0988C197.859 72.1505 198.604 71.1088 199.195 69.985C199.778 68.8923 200.376 67.8025 200.809 66.6504C201.672 64.3348 202.052 61.9315 201.95 59.4517C201.89 57.9259 201.661 56.4285 201.231 54.965C201.075 54.4271 201.075 54.4271 200.534 54.4271C200.183 54.4299 199.832 54.4469 199.473 54.4554C200.993 59.0045 199.059 62.0928 196.331 64.063C193.072 61.6059 191.883 58.4638 193.236 54.4413C192.767 54.4413 192.336 54.4299 191.903 54.4554C191.832 54.4583 191.736 54.5828 191.711 54.6677C191.187 56.3379 190.913 58.0448 190.867 59.7914C190.808 61.8805 191.057 63.9413 191.722 65.9229C192.093 67.0353 192.574 68.1139 193.087 69.1754C193.497 70.0076 193.998 70.8116 194.525 71.5815C195.071 72.3798 195.694 73.1158 196.348 73.9622ZM181.865 57.9741C182.115 57.824 182.29 57.7306 182.454 57.623C183.64 56.8446 184.826 56.0548 186.012 55.2594C187.184 54.4894 188.362 53.7024 189.534 52.924C189.743 52.7824 189.823 52.6579 189.704 52.4173C189.571 52.1455 189.472 51.8624 189.37 51.5794C188.447 49.1053 187.629 46.5972 187.091 43.9986C187.043 43.741 186.924 43.5541 186.621 43.5655C186.313 43.5796 185.995 43.5089 185.896 43.9618C185.758 44.5477 185.554 45.1167 185.398 45.697C184.993 47.0671 184.611 48.4372 184.215 49.8016C183.966 50.6735 183.708 51.5341 183.451 52.4003C183.091 53.643 182.729 54.8914 182.369 56.1369C182.202 56.7257 182.049 57.306 181.865 57.9741ZM210.861 57.9967C210.663 57.3088 210.504 56.7087 210.329 56.1114C210.012 55.0131 209.678 53.9147 209.358 52.8164C208.998 51.5624 208.647 50.297 208.279 49.0402C207.843 47.5144 207.424 45.9858 206.946 44.4741C206.595 43.3758 206.847 43.5881 206.063 43.5683C205.794 43.557 205.686 43.6759 205.632 43.9193C205.545 44.3949 205.443 44.8761 205.324 45.3432C204.698 47.6984 203.951 50.0083 203.076 52.2814C202.923 52.6834 202.957 52.7853 203.303 53.0032C203.634 53.2127 203.974 53.4194 204.302 53.6402C205.264 54.2771 206.224 54.9225 207.192 55.5594C208.041 56.1256 208.885 56.6974 209.729 57.2635C210.08 57.4957 210.431 57.7193 210.861 57.9967ZM196.466 61.4899C196.812 60.9775 197.185 60.5331 197.452 60.0292C198.372 58.243 198.21 56.4341 197.471 54.6394C197.435 54.5488 197.287 54.4498 197.185 54.4413C196.693 54.4271 196.2 54.4299 195.711 54.4299C195.439 54.4299 195.275 54.5545 195.17 54.8149C194.757 55.7717 194.584 56.771 194.638 57.8127C194.72 59.2479 195.26 60.468 196.466 61.4899Z" fill="white"></path></svg>